<svg width="48" height="48" viewBox="0 0 48 48" fill="none" xmlns="http://www.w3.org/2000/svg">
<path d="M24 31C22.1435 31 20.363 30.2625 19.0502 28.9498C17.7375 27.637 17 25.8565 17 24C17 22.1435 17.7375 20.363 19.0502 19.0503C20.363 17.7375 22.1435 17 24 17C25.8565 17 27.637 17.7375 28.9497 19.0503C30.2625 20.363 31 22.1435 31 24C31 25.8565 30.2625 27.637 28.9497 28.9498C27.637 30.2625 25.8565 31 24 31ZM38.86 25.94C38.94 25.3 39 24.66 39 24C39 23.34 38.94 22.68 38.86 22L43.08 18.74C43.46 18.44 43.56 17.9 43.32 17.46L39.32 10.54C39.08 10.1 38.54 9.92 38.1 10.1L33.12 12.1C32.08 11.32 31 10.64 29.74 10.14L29 4.84C28.9594 4.60444 28.8367 4.39086 28.6536 4.23711C28.4706 4.08336 28.239 3.99936 28 4H20C19.5 4 19.08 4.36 19 4.84L18.26 10.14C17 10.64 15.92 11.32 14.88 12.1L9.89998 10.1C9.45998 9.92 8.91998 10.1 8.67998 10.54L4.67998 17.46C4.41998 17.9 4.53998 18.44 4.91998 18.74L9.13998 22C9.05998 22.68 8.99998 23.34 8.99998 24C8.99998 24.66 9.05998 25.3 9.13998 25.94L4.91998 29.26C4.53998 29.56 4.41998 30.1 4.67998 30.54L8.67998 37.46C8.91998 37.9 9.45998 38.06 9.89998 37.9L14.88 35.88C15.92 36.68 17 37.36 18.26 37.86L19 43.16C19.08 43.64 19.5 44 20 44H28C28.5 44 28.92 43.64 29 43.16L29.74 37.86C31 37.34 32.08 36.68 33.12 35.88L38.1 37.9C38.54 38.06 39.08 37.9 39.32 37.46L43.32 30.54C43.56 30.1 43.46 29.56 43.08 29.26L38.86 25.94Z" fill="white"/>
</svg>
